<svg width="24" height="24" viewBox="0 0 24 24" fill="none" xmlns="http://www.w3.org/2000/svg"><path d="m9.096 5.468 1.546-1.298a2.501 2.501 0 0 1 2.797-.283l.142-.052a5.495 5.495 0 0 1 1.723-.33 4 4 0 0 0-5.627-.484L4.975 6.968l4.12-1.5Z" fill="white"></path><path fill-rule="evenodd" clip-rule="evenodd" d="M11.835 14.995a2.697 2.697 0 1 1 5.395 0 2.697 2.697 0 0 1-5.395 0Zm2.698-1.447a1.447 1.447 0 1 0 0 2.894 1.447 1.447 0 0 0 0-2.894Z" fill="white"></path><path d="M8.02 14.995a1.447 1.447 0 0 1 2.311-1.161.625.625 0 0 0 .747-1.002 2.697 2.697 0 1 0-.016 4.34.625.625 0 0 0-.74-1.009 1.447 1.447 0 0 1-2.302-1.168Z" fill="white"></path><path fill-rule="evenodd" clip-rule="evenodd" d="M7 8.995a4 4 0 0 0-4 4v4a4 4 0 0 0 4 4h10a4 4 0 0 0 4-4v-4a4 4 0 0 0-4-4H7Zm10 1.5H7a2.5 2.5 0 0 0-2.5 2.5v4a2.5 2.5 0 0 0 2.5 2.5h10a2.5 2.5 0 0 0 2.5-2.5v-4a2.5 2.5 0 0 0-2.5-2.5Z" fill="white"></path><path d="m14.607 6.654-2.31.841H7.91l6.183-2.25a4 4 0 0 1 5.127 2.39l.143.393a5.465 5.465 0 0 0-1.892-.513 2.501 2.501 0 0 0-2.865-.86Z" fill="white"></path></svg>