<svg width="24" height="24" viewBox="0 0 24 24" fill="none" xmlns="http://www.w3.org/2000/svg"><path d="M5.625 13.5H8.25a.75.75 0 0 0 0-1.5H5.625a2.625 2.625 0 1 0 0 5.25h10.5a1.125 1.125 0 0 1 0 2.25H11.25a.75.75 0 1 0 0 1.5h4.875a2.625 2.625 0 1 0 0-5.25h-10.5a1.125 1.125 0 0 1 0-2.25Z" fill="white"></path><path d="M17.25 3a.75.75 0 0 0-.529.221l-4.683 4.68a5.226 5.226 0 0 0-1.538 3.724v1.125a.75.75 0 0 0 .75.75h1.125a5.22 5.22 0 0 0 3.713-1.537l4.69-4.684A.75.75 0 0 0 21 6.75 3.75 3.75 0 0 0 17.25 3Zm-2.212 7.901A3.724 3.724 0 0 1 12.375 12H12v-.375A3.722 3.722 0 0 1 13.1 8.974l4.444-4.455A2.25 2.25 0 0 1 19.5 6.457l-4.462 4.444Z" fill="white"></path></svg>