<?xml version="1.0" encoding="utf-8"?><!-- Uploaded to: SVG Repo, www.svgrepo.com, Generator: SVG Repo Mixer Tools -->
<svg fill="#000000" width="800px" height="800px" viewBox="0 0 1024 1024" xmlns="http://www.w3.org/2000/svg"><path d="M768.434 777.86c22.621 0 40.96-18.342 40.96-40.96V205.444c0-22.625-18.335-40.96-40.96-40.96H256.547c-22.625 0-40.96 18.335-40.96 40.96V736.9c0 22.618 18.339 40.96 40.96 40.96h511.887zm0 40.96H256.547c-45.243 0-81.92-36.681-81.92-81.92V205.444c0-45.246 36.674-81.92 81.92-81.92h511.887c45.246 0 81.92 36.674 81.92 81.92V736.9c0 45.239-36.677 81.92-81.92 81.92z"/><path d="M830.414 982.66c45.234 0 81.92-36.686 81.92-81.92V122.879c0-45.241-36.682-81.92-81.92-81.92H194.561c-45.245 0-81.92 36.675-81.92 81.92V900.74c0 45.238 36.679 81.92 81.92 81.92h635.853zm0 40.96H194.561c-67.863 0-122.88-55.021-122.88-122.88V122.879c0-67.866 55.014-122.88 122.88-122.88h635.853c67.859 0 122.88 55.017 122.88 122.88V900.74c0 67.856-55.024 122.88-122.88 122.88z"/><path d="M534.418 900.74c0-11.309-9.171-20.48-20.48-20.48s-20.48 9.171-20.48 20.48c0 11.309 9.171 20.48 20.48 20.48s20.48-9.171 20.48-20.48zm40.96 0c0 33.931-27.509 61.44-61.44 61.44s-61.44-27.509-61.44-61.44 27.509-61.44 61.44-61.44 61.44 27.509 61.44 61.44z"/></svg>