<?xml version="1.0" encoding="utf-8"?><!-- Uploaded to: SVG Repo, www.svgrepo.com, Generator: SVG Repo Mixer Tools -->
<svg width="800px" height="800px" viewBox="0 0 64 64" id="crown" xmlns="http://www.w3.org/2000/svg"><title>crown</title><circle cx="40.5" cy="24.5" r="21.5" style="fill:#eaeaea"/><line x1="7" y1="8" x2="7" y2="10" style="fill:none;stroke:#4c241d;stroke-linecap:round;stroke-linejoin:round;stroke-width:2px"/><line x1="7" y1="14" x2="7" y2="16" style="fill:none;stroke:#4c241d;stroke-linecap:round;stroke-linejoin:round;stroke-width:2px"/><line x1="3" y1="12" x2="5" y2="12" style="fill:none;stroke:#4c241d;stroke-linecap:round;stroke-linejoin:round;stroke-width:2px"/><line x1="9" y1="12" x2="11" y2="12" style="fill:none;stroke:#4c241d;stroke-linecap:round;stroke-linejoin:round;stroke-width:2px"/><circle cx="54" cy="36" r="2" style="fill:none;stroke:#4c241d;stroke-linecap:round;stroke-linejoin:round;stroke-width:2px"/><path d="M39,53V48.535a10.07,10.07,0,0,1,1.8-5.758l2.855-4.124a6.116,6.116,0,0,0-1.635-8.57,6.138,6.138,0,0,0-7.384.454l-1.33,1.146V53Z" style="fill:#e66353;stroke:#4c241d;stroke-linecap:round;stroke-linejoin:round;stroke-width:2px"/><path d="M17.049,53V48.535a10.07,10.07,0,0,0-1.8-5.758L12.4,38.653a6.116,6.116,0,0,1,1.635-8.57,6.138,6.138,0,0,1,7.384.454l1.33,1.146V53Z" style="fill:#e66353;stroke:#4c241d;stroke-linecap:round;stroke-linejoin:round;stroke-width:2px"/><line x1="62.129" y1="14" x2="59.181" y2="16.948" style="fill:none;stroke:#4c241d;stroke-linecap:round;stroke-linejoin:round;stroke-width:2px"/><line x1="59.181" y1="14" x2="62.129" y2="16.948" style="fill:none;stroke:#4c241d;stroke-linecap:round;stroke-linejoin:round;stroke-width:2px"/><path d="M18,47H14V42.535a6.093,6.093,0,0,0-1.087-3.481L10.057,34.93a10.117,10.117,0,0,1,2.706-14.176,10.149,10.149,0,0,1,12.212.752l1.33,1.145L23.7,25.683l-1.33-1.146a6.138,6.138,0,0,0-7.384-.454,6.116,6.116,0,0,0-1.635,8.57L16.2,36.777A10.07,10.07,0,0,1,18,42.535Z" style="fill:#ffce56;stroke:#4c241d;stroke-linecap:round;stroke-linejoin:round;stroke-width:2px"/><path d="M38.56,47h4V42.535a6.093,6.093,0,0,1,1.087-3.481L46.5,34.93A10.117,10.117,0,0,0,43.8,20.754a10.149,10.149,0,0,0-12.212.752l-1.33,1.145,2.61,3.032,1.33-1.146a6.138,6.138,0,0,1,7.384-.454,6.116,6.116,0,0,1,1.635,8.57l-2.855,4.124a10.07,10.07,0,0,0-1.8,5.758Z" style="fill:#ffce56;stroke:#4c241d;stroke-linecap:round;stroke-linejoin:round;stroke-width:2px"/><rect x="11" y="47" width="34" height="8" style="fill:#ffce56;stroke:#4c241d;stroke-linecap:round;stroke-linejoin:round;stroke-width:2px"/><rect x="25.879" y="48.879" width="4.243" height="4.243" transform="translate(-27.861 34.737) rotate(-45)" style="fill:#e66353;stroke:#4c241d;stroke-linecap:round;stroke-linejoin:round;stroke-width:2px"/><rect x="35.879" y="48.879" width="4.243" height="4.243" transform="translate(-24.933 41.808) rotate(-45)" style="fill:#e66353;stroke:#4c241d;stroke-linecap:round;stroke-linejoin:round;stroke-width:2px"/><circle cx="28" cy="17" r="4" style="fill:#ffce56;stroke:#4c241d;stroke-linecap:round;stroke-linejoin:round;stroke-width:2px"/><rect x="15.879" y="48.879" width="4.243" height="4.243" transform="translate(-30.79 27.665) rotate(-45)" style="fill:#e66353;stroke:#4c241d;stroke-linecap:round;stroke-linejoin:round;stroke-width:2px"/><rect x="9" y="55" width="38" height="7" rx="2.591" ry="2.591" style="fill:#ffffff;stroke:#4c241d;stroke-linecap:round;stroke-linejoin:round;stroke-width:2px"/><rect x="23" y="19" width="10" height="28" style="fill:#ffce56;stroke:#4c241d;stroke-linecap:round;stroke-linejoin:round;stroke-width:2px"/><polygon points="34 8 28 7 28 6 34 5 34 8" style="fill:#ffce56;stroke:#4c241d;stroke-linecap:round;stroke-linejoin:round;stroke-width:2px"/><polygon points="22 8 28 7 28 6 22 5 22 8" style="fill:#ffce56;stroke:#4c241d;stroke-linecap:round;stroke-linejoin:round;stroke-width:2px"/><polygon points="29.5 1 28.5 6.5 27.5 6.5 26.5 1 29.5 1" style="fill:#ffce56;stroke:#4c241d;stroke-linecap:round;stroke-linejoin:round;stroke-width:2px"/><polygon points="29.5 13 28.5 6.5 27.5 6.5 26.5 13 29.5 13" style="fill:#ffce56;stroke:#4c241d;stroke-linecap:round;stroke-linejoin:round;stroke-width:2px"/><circle cx="13" cy="58" r="1" style="fill:#4c241d"/><circle cx="17" cy="59" r="1" style="fill:#4c241d"/><circle cx="22" cy="58" r="1" style="fill:#4c241d"/><circle cx="31" cy="59" r="1" style="fill:#4c241d"/><circle cx="27" cy="59" r="1" style="fill:#4c241d"/><circle cx="37" cy="58" r="1" style="fill:#4c241d"/><circle cx="45" cy="10" r="1" style="fill:#4c241d"/><circle cx="41" cy="59" r="1" style="fill:#4c241d"/></svg>