<svg width="24" height="24" viewBox="0 0 24 24" xmlns="http://www.w3.org/2000/svg"><path d="M7.349 15.508c0 1.263.43 2.249 1.292 2.957.861.708 2.01 1.063 3.445 1.063 1.436 0 2.571-.355 3.407-1.063.836-.708 1.254-1.636 1.254-2.785 0-.885-.205-1.611-.614-2.18H18V12H6.432v1.5h7.175c.388.185.688.367.9.544.492.408.737.957.737 1.646 0 .753-.27 1.362-.813 1.828-.542.46-1.324.689-2.345.689-1.02 0-1.815-.227-2.383-.68-.561-.453-.842-1.126-.842-2.019v-.23H7.349v.23ZM8.351 11h2.918c-.667-.268-1.147-.523-1.441-.765-.473-.396-.709-.916-.709-1.56 0-.715.233-1.28.699-1.694.466-.415 1.193-.622 2.182-.622.983 0 1.723.242 2.22.727.498.485.747 1.117.747 1.895v.21h1.512v-.21c0-1.148-.405-2.093-1.215-2.833-.804-.74-1.892-1.11-3.264-1.11-1.372 0-2.447.348-3.225 1.043-.772.69-1.158 1.573-1.158 2.651 0 .948.245 1.704.734 2.268Z" fill="currentColor"></path></svg>